<svg width="103" height="32" viewBox="0 0 103 32" fill="none" xmlns="http://www.w3.org/2000/svg">
<path d="M54.0387 8.04048C54.0387 9.19374 53.1094 10.1224 51.9562 10.1224C50.8029 10.1224 49.8743 9.19374 49.8743 8.04048C49.8743 6.88723 50.7712 5.9586 51.9562 5.9586C53.1421 5.9906 54.0387 6.91955 54.0387 8.04048ZM45.4539 12.2369V12.7495C45.4539 12.7495 44.4613 11.4676 42.3471 11.4676C38.856 11.4676 36.1328 14.1264 36.1328 17.8099C36.1328 21.4617 38.824 24.1522 42.3471 24.1522C44.4933 24.1522 45.4539 22.8389 45.4539 22.8389V23.3832C45.4539 23.6395 45.6466 23.8312 45.9025 23.8312H48.4967V11.787H45.9025C45.6466 11.7879 45.4539 12.0126 45.4539 12.2369ZM45.4539 19.9561C44.9739 20.661 44.0127 21.2697 42.8597 21.2697C40.8098 21.2697 39.24 19.9884 39.24 17.8099C39.24 15.6317 40.8098 14.3504 42.8597 14.3504C43.981 14.3504 45.0059 14.9911 45.4539 15.6637V19.9561ZM50.4189 11.7879H53.4938V23.8322H50.4189V11.7879ZM96.3524 11.4673C94.2382 11.4673 93.2449 12.7492 93.2449 12.7492V5.9906H90.1701V23.8322H92.765C93.0213 23.8322 93.213 23.6078 93.213 23.3835V22.8392C93.213 22.8392 94.2062 24.1525 96.3198 24.1525C99.8115 24.1525 102.534 21.4626 102.534 17.8108C102.534 14.1591 99.8115 11.4673 96.3524 11.4673ZM95.8398 21.2373C94.6542 21.2373 93.7256 20.6293 93.2449 19.9241V15.6317C93.7256 14.9911 94.7505 14.3184 95.8398 14.3184C97.8897 14.3184 99.4592 15.5997 99.4592 17.7779C99.4592 19.9561 97.89 21.2373 95.8398 21.2373ZM88.5689 16.6893V23.8642H85.4934V17.0413C85.4934 15.0557 84.8528 14.2544 83.1242 14.2544C82.1956 14.2544 81.2343 14.7351 80.6247 15.44V23.8325H77.5505V11.7882H79.9841C80.2404 11.7882 80.4327 12.0126 80.4327 12.2369V12.7495C81.3297 11.8202 82.5146 11.4676 83.6995 11.4676C85.0451 11.4676 86.1664 11.8526 87.0633 12.6212C88.1519 13.5181 88.5689 14.6711 88.5689 16.6893ZM70.0861 11.4673C67.9725 11.4673 66.9793 12.7492 66.9793 12.7492V5.9906H63.9044V23.8322H66.4986C66.7549 23.8322 66.9472 23.6078 66.9472 23.3835V22.8392C66.9472 22.8392 67.9405 24.1525 70.0541 24.1525C73.5458 24.1525 76.2683 21.4626 76.2683 17.8108C76.3003 14.1588 73.5778 11.4673 70.0861 11.4673ZM69.5734 21.2373C68.3885 21.2373 67.4599 20.6293 66.9793 19.9241V15.6317C67.4599 14.9911 68.4848 14.3184 69.5734 14.3184C71.624 14.3184 73.1932 15.5997 73.1932 17.7779C73.1932 19.9561 71.624 21.2373 69.5734 21.2373ZM61.2456 11.4673C62.1742 11.4673 62.6548 11.6279 62.6548 11.6279V14.4784C62.6548 14.4784 60.0923 13.6135 58.4911 15.4397V23.8638H55.4156V11.7879H58.0105C58.2668 11.7879 58.4584 12.0122 58.4584 12.2366V12.7492C59.0357 12.0762 60.285 11.4673 61.2456 11.4673ZM29.3106 22.7429C29.1506 22.3586 28.9903 21.9423 28.8303 21.5897C28.5736 21.0133 28.3173 20.4684 28.0936 19.9561L28.0616 19.9241C25.8511 15.1191 23.4812 10.2507 20.9824 5.4463L20.8864 5.25365C20.6236 4.75525 20.3675 4.25336 20.1181 3.74809C19.7975 3.17114 19.4775 2.56315 18.9648 1.9862C17.9399 0.704946 16.4663 0 14.8971 0C13.2952 0 11.854 0.70495 10.7973 1.92189C10.3167 2.49819 9.96407 3.10683 9.64408 3.68377C9.39409 4.18872 9.13797 4.69061 8.87578 5.18934L8.77946 5.38197C6.31295 10.1864 3.91075 15.0551 1.70056 19.8598L1.66825 19.9234C1.44425 20.4367 1.18761 20.981 0.931298 21.557C0.771301 21.9096 0.611304 22.294 0.451307 22.7103C0.0346759 23.8952 -0.0936477 25.0165 0.066989 26.17C0.419302 28.5726 2.02055 30.5898 4.23106 31.4874C5.06401 31.84 5.92895 32 6.82557 32C7.08189 32 7.40189 31.968 7.65852 31.9357C8.71578 31.8077 9.80472 31.4557 10.862 30.8471C12.1752 30.1101 13.4245 29.0535 14.8337 27.5159C16.243 29.0535 17.5242 30.1101 18.8055 30.8471C19.8631 31.4557 20.9517 31.8077 22.0086 31.9357C22.2649 31.9683 22.5856 32 22.8419 32C23.7388 32 24.6355 31.84 25.4361 31.4874C27.6786 30.5898 29.2478 28.5406 29.6005 26.17C29.8549 25.0491 29.7269 23.9285 29.3106 22.7429ZM14.8648 24.4085C13.1349 22.2303 12.0136 20.1804 11.6296 18.4512C11.4696 17.7142 11.4373 17.0736 11.5336 16.497C11.5973 15.9843 11.79 15.5357 12.0463 15.1514C12.6549 14.2871 13.6798 13.7421 14.8651 13.7421C16.0507 13.7421 17.1076 14.2548 17.6842 15.1514C17.9406 15.5357 18.1326 15.9846 18.1972 16.497C18.2929 17.0739 18.2609 17.7462 18.1009 18.4512C17.7153 20.1484 16.594 22.1986 14.8648 24.4085ZM27.6447 25.914C27.4207 27.5796 26.2994 29.0215 24.7302 29.6621C23.9615 29.9821 23.1283 30.0784 22.296 29.9821C21.4954 29.8858 20.6941 29.6295 19.8618 29.1495C18.7085 28.5082 17.5556 27.5159 16.21 26.042C18.3239 23.4478 19.6052 21.077 20.0858 18.9635C20.3101 17.9702 20.3424 17.0736 20.2458 16.2403C20.1181 15.4397 19.8295 14.7027 19.3812 14.0621C18.3876 12.6202 16.7217 11.7879 14.8645 11.7879C13.0072 11.7879 11.3413 12.6529 10.3484 14.0621C9.90007 14.7027 9.61144 15.4397 9.48344 16.2403C9.35544 17.0736 9.38712 18.0022 9.64344 18.9635C10.1237 21.077 11.437 23.4795 13.5189 26.074C12.2056 27.5476 11.0204 28.5409 9.86711 29.1815C9.03417 29.6621 8.23387 29.9184 7.43325 30.0141C6.56862 30.1104 5.73536 29.9821 4.99873 29.6941C3.42949 29.0535 2.30823 27.6116 2.08423 25.946C1.98824 25.1454 2.05191 24.3448 2.37255 23.4478C2.46823 23.1272 2.62886 22.8072 2.78886 22.4229C3.01317 21.9103 3.26885 21.3653 3.52548 20.821L3.55781 20.7573C5.76768 15.9843 8.13787 11.1156 10.6044 6.37523L10.7004 6.1826C10.957 5.70261 11.2133 5.18998 11.4693 4.70935C11.7256 4.19672 12.0136 3.71609 12.3663 3.29946C13.0389 2.53147 13.9355 2.11452 14.9288 2.11452C15.922 2.11452 16.8187 2.53147 17.4913 3.29946C17.8439 3.71705 18.1319 4.19768 18.3882 4.70935C18.6449 5.18998 18.9012 5.70261 19.1568 6.1826L19.2532 6.37523C21.6821 11.1353 24.0208 15.9409 26.2681 20.7893V20.8213C26.5247 21.3346 26.7487 21.9106 27.005 22.4239C27.165 22.8075 27.3253 23.1275 27.4213 23.4482C27.677 24.2802 27.773 25.0814 27.6447 25.914Z" fill="#191825" fill-opacity="0.5"/>
</svg>
