<svg width="189" height="32" viewBox="0 0 189 32" fill="none" xmlns="http://www.w3.org/2000/svg">
<mask id="mask0_3015_895" style="mask-type:luminance" maskUnits="userSpaceOnUse" x="0" y="0" width="189" height="32">
<path d="M188.604 0H0V32H188.604V0Z" fill="white"/>
</mask>
<g mask="url(#mask0_3015_895)">
<mask id="mask1_3015_895" style="mask-type:luminance" maskUnits="userSpaceOnUse" x="0" y="0" width="189" height="32">
<path d="M188.604 0H0V32H188.604V0Z" fill="white"/>
</mask>
<g mask="url(#mask1_3015_895)">
<path d="M73.957 3.50317C73.957 1.92288 75.2389 0.633591 76.8266 0.633591C78.4069 0.633591 79.6962 1.91551 79.6962 3.50317C79.6409 5.08346 78.3074 6.31749 76.7235 6.26223C75.2205 6.20698 74.016 5.00242 73.957 3.50317Z" fill="#191825" fill-opacity="0.5"/>
</g>
<mask id="mask2_3015_895" style="mask-type:luminance" maskUnits="userSpaceOnUse" x="0" y="0" width="189" height="32">
<path d="M188.604 0H0V32H188.604V0Z" fill="white"/>
</mask>
<g mask="url(#mask2_3015_895)">
<path d="M119.181 22.6177C119.181 21.0264 120.463 19.7408 122.04 19.7408C123.627 19.7408 124.913 21.0264 124.913 22.6177C124.913 24.2054 123.627 25.491 122.04 25.491C120.463 25.491 119.181 24.2017 119.181 22.6177Z" fill="#191825" fill-opacity="0.5"/>
</g>
<mask id="mask3_3015_895" style="mask-type:luminance" maskUnits="userSpaceOnUse" x="0" y="0" width="189" height="32">
<path d="M188.604 0H0V32H188.604V0Z" fill="white"/>
</mask>
<g mask="url(#mask3_3015_895)">
<path d="M26.9277 21.3763C24.4634 21.3763 22.7431 19.4166 22.7431 16.6133C22.7431 13.8137 24.4597 11.854 26.9277 11.854C29.4068 11.854 31.1455 13.8137 31.1455 16.6133C31.1418 19.4608 29.4474 21.3763 26.9277 21.3763ZM26.9277 7.66939C21.708 7.66939 17.9175 11.4304 17.9175 16.6133C17.9175 21.7962 21.7117 25.5573 26.9277 25.5573C32.1733 25.5573 35.9748 21.7962 35.9748 16.617C35.9748 11.4304 32.1659 7.66939 26.9277 7.66939ZM68.4095 17.0627C68.229 16.7128 67.9969 16.3849 67.728 16.0976L67.5696 15.9318L67.7354 15.7735C67.9748 15.5193 68.2216 15.2209 68.4537 14.8746L73.062 8.02302H67.4665L64.0038 13.3827C63.8086 13.6738 63.4144 13.8101 62.8214 13.8101H62.0294V3.67629C62.0294 1.65027 60.7696 1.37769 59.4029 1.37769H57.0675L57.0712 25.292H62.0257V18.1236H62.4898C63.0534 18.1236 63.4365 18.1899 63.617 18.4957L66.3503 23.6565C67.1165 25.0563 67.8754 25.2957 69.3046 25.2957H73.1135L70.2808 20.6212L68.4095 17.0627ZM92.4786 7.63255C89.9552 7.63255 88.3455 8.75238 87.4467 9.70277L87.1483 10.0085L87.0415 9.59594C86.7762 8.57925 85.8848 8.0267 84.5403 8.0267H82.319L82.3337 25.2957H87.2588V17.339C87.2588 16.5581 87.3583 15.8876 87.5645 15.2688C88.1134 13.4048 89.6421 12.2408 91.5503 12.2408C93.0864 12.2408 93.6905 13.0512 93.6905 15.1509V22.6729C93.6905 24.4595 94.5156 25.2994 96.3096 25.2994H98.6487L98.6376 14.3147C98.6376 9.93484 96.5048 7.63255 92.4786 7.63255ZM76.8893 8.02302H74.5538L74.5686 21.3763V25.292H77.0587L77.1471 25.2957L78.3112 25.292H79.4642V25.2884H79.4752L79.4863 10.6495C79.4789 8.88131 78.6353 8.02302 76.8893 8.02302ZM46.2633 21.3763C43.7989 21.3763 42.0786 19.4166 42.0786 16.6133C42.0786 13.8137 43.7989 11.854 46.2633 11.854C48.7387 11.854 50.4811 13.8137 50.4811 16.6133C50.4774 19.4608 48.7829 21.3763 46.2633 21.3763ZM46.2633 7.66939C41.0398 7.66939 37.2457 11.4304 37.2457 16.6133C37.2457 21.7962 41.0398 25.5573 46.2633 25.5573C51.4978 25.5573 55.3104 21.7962 55.3104 16.617C55.3104 11.4304 51.5015 7.66939 46.2633 7.66939Z" fill="#191825" fill-opacity="0.5"/>
</g>
</g>
<mask id="mask4_3015_895" style="mask-type:luminance" maskUnits="userSpaceOnUse" x="0" y="0" width="189" height="32">
<path d="M188.604 0H0V32H188.604V0Z" fill="white"/>
</mask>
<g mask="url(#mask4_3015_895)">
<mask id="mask5_3015_895" style="mask-type:luminance" maskUnits="userSpaceOnUse" x="0" y="0" width="189" height="32">
<path d="M188.563 0.629913H0V31.9595H188.563V0.629913Z" fill="white"/>
</mask>
<g mask="url(#mask5_3015_895)">
<mask id="mask6_3015_895" style="mask-type:luminance" maskUnits="userSpaceOnUse" x="0" y="0" width="189" height="32">
<path d="M188.604 0H0V32H188.604V0Z" fill="white"/>
</mask>
<g mask="url(#mask6_3015_895)">
<path d="M151.793 21.3763C149.328 21.3763 147.608 19.4166 147.608 16.6133C147.608 13.8137 149.328 11.854 151.793 11.854C154.272 11.854 156.01 13.8137 156.01 16.6133C156.01 19.4608 154.312 21.3763 151.793 21.3763ZM151.793 7.66939C146.569 7.66939 142.775 11.4304 142.775 16.6133C142.775 21.7962 146.562 25.5573 151.793 25.5573C157.031 25.5573 160.84 21.7962 160.84 16.617C160.84 11.4304 157.027 7.66939 151.793 7.66939Z" fill="#191825" fill-opacity="0.5"/>
</g>
<mask id="mask7_3015_895" style="mask-type:luminance" maskUnits="userSpaceOnUse" x="0" y="0" width="189" height="32">
<path d="M188.604 0H0V32H188.604V0Z" fill="white"/>
</mask>
<g mask="url(#mask7_3015_895)">
<path d="M109.015 20.6101C106.322 20.6101 105.368 18.2636 105.368 16.0645C105.368 15.092 105.615 11.9351 108.764 11.9351C110.326 11.9351 112.407 12.3845 112.407 16.2229C112.404 19.8513 110.558 20.6101 109.015 20.6101ZM114.96 7.97883C114.024 7.97883 113.306 8.35088 112.945 9.03236L112.812 9.29758L112.584 9.09498C111.788 8.40613 110.363 7.59204 108.053 7.59204C103.449 7.59204 100.351 11.0473 100.351 16.1971C100.351 21.3395 103.559 24.9311 108.149 24.9311C109.714 24.9311 110.956 24.5627 111.936 23.8186L112.311 23.535V24.0138C112.311 26.3235 110.82 27.5943 108.116 27.5943C106.797 27.5943 105.603 27.2739 104.804 26.9829C103.762 26.6661 103.146 26.9313 102.727 27.9738L102.332 28.9389L101.78 30.3497L102.122 30.5302C103.854 31.4511 106.108 31.9963 108.142 31.9963C112.334 31.9963 117.229 29.8524 117.229 23.8112L117.244 7.96778H114.96" fill="#191825" fill-opacity="0.5"/>
</g>
</g>
</g>
<mask id="mask8_3015_895" style="mask-type:luminance" maskUnits="userSpaceOnUse" x="0" y="0" width="189" height="32">
<path d="M188.604 0H0V32H188.604V0Z" fill="white"/>
</mask>
<g mask="url(#mask8_3015_895)">
<mask id="mask9_3015_895" style="mask-type:luminance" maskUnits="userSpaceOnUse" x="0" y="0" width="189" height="32">
<path d="M188.604 0H0V32H188.604V0Z" fill="white"/>
</mask>
<g mask="url(#mask9_3015_895)">
<path d="M8.59399 21.1737L4.58248 21.17V16.3813C4.58248 15.3535 4.98032 14.8267 5.85334 14.7015H8.58662C10.5353 14.7015 11.7951 15.9318 11.8025 17.921C11.8025 19.9655 10.5721 21.1737 8.59399 21.1737ZM4.58248 8.25141V6.99159C4.58248 5.88649 5.04662 5.36341 6.07436 5.29711H8.12617C9.88327 5.29711 10.9368 6.35063 10.9368 8.11143C10.9368 9.45597 10.2148 11.0215 8.18879 11.0215H4.58248V8.25141ZM13.7069 13.0328L12.9849 12.6239L13.6148 12.0824C14.3552 11.4525 15.5819 10.0269 15.5819 7.56993C15.5819 3.80891 12.6681 1.38506 8.15564 1.38506H2.42385C1.08668 1.43294 0.0147347 2.52699 0 3.86416V25.2H8.26246C13.2796 25.2 16.5139 22.4704 16.5139 18.2415C16.5139 15.9724 15.464 14.0237 13.7069 13.0328Z" fill="#191825" fill-opacity="0.5"/>
</g>
<mask id="mask10_3015_895" style="mask-type:luminance" maskUnits="userSpaceOnUse" x="0" y="0" width="189" height="32">
<path d="M188.604 0H0V32H188.604V0Z" fill="white"/>
</mask>
<g mask="url(#mask10_3015_895)">
<path d="M182.831 7.68781C180.776 7.69149 178.827 8.6382 177.545 10.2516L177.188 10.7011L176.908 10.1964C175.994 8.53137 174.429 7.6915 172.241 7.6915C169.953 7.6915 168.417 8.96604 167.703 9.72856L167.238 10.2332L167.058 9.56648C166.8 8.60873 165.945 8.08196 164.656 8.08196H162.586L162.564 25.2847H167.264V17.689C167.264 17.0222 167.345 16.3665 167.511 15.6777C167.96 13.8432 169.194 11.8688 171.268 12.064C172.543 12.1893 173.169 13.1765 173.169 15.0809V25.281H177.903V17.6853C177.903 16.8528 177.98 16.2265 178.168 15.6077C178.544 13.8543 179.836 12.0566 181.837 12.0566C183.284 12.0566 183.822 12.8744 183.822 15.0809V22.765C183.822 24.5001 184.596 25.281 186.334 25.281H188.545L188.548 14.3C188.563 9.90906 186.629 7.68781 182.831 7.68781ZM140.053 19.3098C140.038 19.3245 138.016 21.461 135.353 21.461C132.925 21.461 130.475 19.9728 130.475 16.6502C130.475 13.7806 132.376 11.773 135.098 11.773C135.982 11.773 136.984 12.0898 137.143 12.6202L137.165 12.7086C137.371 13.4638 138.06 13.9832 138.837 13.9795L141.412 13.9832V11.7288C141.412 8.75607 137.636 7.68413 135.091 7.68413C129.654 7.68413 125.712 11.4673 125.712 16.6796C125.712 21.8883 129.613 25.6715 134.992 25.6715C139.659 25.6715 142.193 22.603 142.219 22.5772L142.352 22.4114L140.311 19.0261L140.053 19.3098Z" fill="#191825" fill-opacity="0.5"/>
</g>
</g>
</svg>
