<svg width="114" height="32" viewBox="0 0 114 32" fill="none" xmlns="http://www.w3.org/2000/svg">
<path d="M54.3416 25.0368H50.8266C50.8044 25.0368 50.8044 25.0368 50.7933 25.0257L47.7677 21.3327L44.7422 25.0257C44.731 25.0368 44.7199 25.0368 44.7088 25.0368H41.8946C41.8723 25.0368 41.8612 25.0257 41.8501 25.0145C41.8501 25.0034 41.8501 24.9812 41.8612 24.97L46.3217 19.4973L41.9168 14.0803C41.9057 14.058 41.9057 14.0469 41.9057 14.0247C41.9168 14.0135 41.928 14.0024 41.9391 14.0024H45.4541C45.4652 14.0024 45.4763 14.0135 45.4874 14.0247L48.1459 17.3172L50.8489 14.0247C50.86 14.0135 50.8711 14.0024 50.8823 14.0024H53.741C53.7521 14.0024 53.7743 14.0135 53.7855 14.0247C53.7966 14.0469 53.7855 14.058 53.7743 14.0803L49.6031 19.0969L54.3861 24.97C54.3972 24.9812 54.3972 25.0034 54.3972 25.0145C54.375 25.0368 54.3639 25.0368 54.3416 25.0368Z" fill="#191825" fill-opacity="0.5"/>
<path d="M73.3512 15.9379C71.7939 15.9379 70.7372 16.8834 70.4257 18.5185H75.7204V18.4073C75.7204 17.1058 74.7527 15.9379 73.3512 15.9379ZM78.4457 20.2092C78.4345 20.2204 78.4234 20.2315 78.4123 20.2315H70.3701C70.537 22.1002 71.7494 23.1681 73.7182 23.1681C74.9307 23.1681 76.221 22.7565 78.0341 21.7888C78.0675 21.7665 78.1008 21.7999 78.1008 21.8333V24.3026C78.1008 24.3249 78.0897 24.336 78.0786 24.336C76.3878 25.0479 74.686 25.5373 73.3512 25.5373C69.8918 25.5373 67.3779 23.0123 67.3779 19.5418C67.3779 16.0714 69.8918 13.5464 73.3512 13.5464C76.5102 13.5464 78.5346 15.6709 78.5346 18.5964C78.5346 19.0747 78.4568 20.1759 78.4457 20.2092Z" fill="#191825" fill-opacity="0.5"/>
<path d="M94.7747 11.711C93.7848 11.711 92.9839 10.9212 92.9839 9.95352C92.9839 8.95242 93.7848 8.14041 94.7747 8.14041C95.7647 8.14041 96.5656 8.95242 96.5656 9.95352C96.5656 10.9212 95.7647 11.711 94.7747 11.711ZM93.3287 25.0368C93.2953 25.0368 93.2842 25.0257 93.2842 24.9923V14.0358C93.2842 14.0135 93.2953 13.9913 93.3176 13.9913H96.2208C96.243 13.9913 96.2542 14.0135 96.2542 14.0358V24.9923C96.2542 25.0257 96.2319 25.0368 96.2097 25.0368H93.3287Z" fill="#191825" fill-opacity="0.5"/>
<path d="M59.6582 23.3905C59.1354 23.3905 58.6015 23.3127 57.9786 23.1569L57.9897 16.127C58.7128 15.8934 59.3357 15.7933 59.9586 15.7933C61.9719 15.7933 63.3178 17.2727 63.3178 19.4862C63.3178 21.8555 61.8829 23.3905 59.6582 23.3905ZM60.448 13.5464C59.6249 13.5464 58.8017 13.691 57.9341 13.9913H55.0421C55.0198 13.9913 54.9976 14.0135 54.9976 14.0358V32C55.8652 31.8776 56.933 31.5662 57.9786 30.832V25.3705C58.6905 25.4706 59.28 25.5373 59.8473 25.5373C63.8072 25.5373 66.3656 23.1681 66.3656 19.4973C66.3656 15.9935 63.9296 13.5464 60.448 13.5464Z" fill="#191825" fill-opacity="0.5"/>
<path d="M88.0452 22.4784C87.1442 22.9567 86.3322 23.1792 85.5758 23.1792C83.785 23.1792 82.706 21.9111 82.706 19.7865C82.706 17.3394 84.0742 15.7488 86.1987 15.7488C86.7883 15.7488 87.3556 15.8934 88.0452 16.2048V22.4784ZM88.0452 8.19601V13.9245C87.1998 13.6798 86.4546 13.5686 85.6982 13.5686C82.2499 13.5686 79.6582 16.1603 79.6582 19.6086C79.6582 23.0346 81.9496 25.5262 85.1086 25.5262C86.1987 25.5262 87.2221 25.2481 88.4234 24.6363V25.6263C89.2132 25.4706 90.1253 25.1591 91.0263 24.514V7.01694C90.1475 7.13929 89.1019 7.43962 88.0452 8.19601Z" fill="#191825" fill-opacity="0.5"/>
<path d="M106.321 22.4562C105.442 22.9567 104.697 23.2014 104.03 23.2014C102.105 23.2014 100.96 21.9334 100.96 19.8088C100.96 17.395 102.317 15.771 104.33 15.771C104.864 15.771 105.52 15.9824 106.321 16.4051V22.4562ZM109.302 13.8578C109.302 13.7911 109.247 13.7355 109.18 13.7355H106.833C106.766 13.7355 106.699 13.7911 106.699 13.8578V14.2583H106.644C105.565 13.7799 104.63 13.5686 103.729 13.5686C100.481 13.5686 97.9341 16.2605 97.9341 19.7087C97.9341 23.1903 100.214 25.5262 103.607 25.5262C104.508 25.5262 105.676 25.4595 106.766 24.2136V25.6263C107.534 25.4595 108.446 25.1369 109.302 24.514V13.8578Z" fill="#191825" fill-opacity="0.5"/>
<path d="M33.8633 22.3004H41.1491C41.0378 23.1124 40.7598 24.069 40.1369 25.0368H32.5619C31.6386 25.0368 30.8711 24.3138 30.7821 23.4128C30.7821 23.4016 30.771 23.3905 30.771 23.3683V8.9969C30.771 8.98578 30.7821 8.97466 30.7821 8.96353C30.8711 8.05142 31.6386 7.3284 32.5619 7.3284H41.138C41.0267 8.1404 40.7486 9.11926 40.1146 10.087H33.8633V14.0024H40.059C40.0812 14.0024 40.1035 14.0247 40.1035 14.0469V16.761C40.1035 16.7832 40.0812 16.8055 40.059 16.8055H33.8633V22.3004Z" fill="#191825" fill-opacity="0.5"/>
<path d="M24.7422 25.2704C24.0192 25.2704 23.5742 24.7031 23.5742 24.0134C23.5742 23.2793 24.0859 22.7565 24.7422 22.7565C25.3874 22.7565 25.899 23.2682 25.899 24.0134C25.899 24.7587 25.3874 25.2704 24.7422 25.2704ZM24.7422 22.623C24.0081 22.623 23.374 23.1792 23.374 24.0134C23.374 24.8032 23.9413 25.4038 24.7422 25.4038C25.4652 25.4038 26.0992 24.8477 26.0992 24.0134C26.0992 23.1792 25.4763 22.623 24.7422 22.623Z" fill="#191825" fill-opacity="0.5"/>
<path d="M24.4194 23.9022V23.3905H24.7642C24.9422 23.3905 25.1424 23.4128 25.1424 23.6241C25.1424 23.8799 24.9533 23.8911 24.742 23.8911C24.7309 23.9022 24.4194 23.9022 24.4194 23.9022ZM25.3871 23.6575C25.3871 23.3238 25.1869 23.1792 24.7865 23.1792H24.1636V24.8254H24.4305V24.1247H24.6864L25.1091 24.8254H25.4205L24.9645 24.1024C25.2092 24.0802 25.3871 23.9578 25.3871 23.6575Z" fill="#191825" fill-opacity="0.5"/>
<path d="M111.705 15.8155C110.982 15.8155 110.537 15.2482 110.537 14.5586C110.537 13.8244 111.048 13.3016 111.705 13.3016C112.35 13.3016 112.861 13.8133 112.861 14.5586C112.861 15.3038 112.35 15.8155 111.705 15.8155ZM111.705 13.1793C110.97 13.1793 110.336 13.7354 110.336 14.5697C110.336 15.3595 110.904 15.9601 111.705 15.9601C112.428 15.9601 113.062 15.4039 113.062 14.5697C113.062 13.7243 112.428 13.1793 111.705 13.1793Z" fill="#191825" fill-opacity="0.5"/>
<path d="M111.371 14.4473V13.9468H111.716C111.893 13.9468 112.094 13.969 112.094 14.1804C112.094 14.4362 111.905 14.4473 111.693 14.4473H111.371ZM112.35 14.2137C112.35 13.88 112.149 13.7354 111.749 13.7354H111.126V15.3817H111.393V14.6809H111.649L112.071 15.3817H112.383L111.927 14.6587C112.16 14.6364 112.35 14.5141 112.35 14.2137Z" fill="#191825" fill-opacity="0.5"/>
<path d="M15.343 10.0759L14.8202 8.58534L10.3263 2.58985L11.1272 2.38963L18.8579 9.07476L23.4074 7.77333C23.9413 7.63985 24.5531 7.60648 25.0092 7.60648C23.5854 4.52531 20.9603 1.98919 17.512 0.765622C10.6934 -1.67039 3.18514 1.9002 0.760253 8.72994C0.00386563 10.8434 -0.162985 13.0236 0.148469 15.0925L11.0382 11.3106L15.343 10.0759Z" fill="#191825" fill-opacity="0.5"/>
<path d="M25.4986 8.78557C25.0982 9.04141 24.5087 9.38623 23.9303 9.57533L19.3697 10.8768L16.333 20.6431L15.5432 20.8989L16.1884 13.4463L15.8325 11.9001L11.5611 13.1237L0.259766 15.7599C1.16076 20.098 4.2308 23.8911 8.71351 25.4817C15.5432 27.9177 23.0404 24.3471 25.4764 17.5174C26.522 14.592 26.4553 11.5219 25.4986 8.78557Z" fill="#191825" fill-opacity="0.5"/>
<path d="M15.8216 11.889L16.1776 13.4351L15.5324 20.8878L16.3222 20.6319L19.3588 10.8656L23.9194 9.56419C24.4978 9.3751 25.0874 9.0414 25.4878 8.77444C25.3432 8.374 25.1875 7.98468 25.0095 7.59536C24.5423 7.59536 23.9417 7.61761 23.4077 7.76221L18.8583 9.06364L11.1276 2.37851L10.3267 2.57873L14.8094 8.57422L15.3322 10.0647L11.0275 11.2994L0.137695 15.0814C0.171065 15.3038 0.215559 15.5374 0.260052 15.7599L11.5503 13.1014L15.8216 11.889Z" fill="white"/>
</svg>
