<svg width="174" height="32" viewBox="0 0 174 32" fill="none" xmlns="http://www.w3.org/2000/svg">
<path d="M99.8066 31.1411L113.111 1.03265C113.321 0.575773 113.074 0.182856 112.563 0.182856H103.242C102.969 0.198354 102.705 0.286038 102.477 0.436946C102.249 0.587855 102.066 0.796578 101.945 1.04179L88.8049 31.1411C88.613 31.6071 88.8597 31.9909 89.3623 31.9909H98.509C99.0207 31.9909 99.6055 31.6071 99.8066 31.1411ZM147.514 23.036L168.165 0.191993H144.014L138.55 8.99151H148.026L127.037 32H152.594L162.116 23.036H147.514ZM59.1351 0.182856H43.1443C42.6702 0.210327 42.2118 0.362538 41.8155 0.624083C41.4192 0.885628 41.099 1.24723 40.8873 1.67229L28.3048 30.5106C27.9393 31.3329 28.387 32 29.2825 32H37.2048C38.1003 32 39.1237 31.3329 39.471 30.5197L43.062 22.3415H46.781C47.9415 22.2684 48.4349 22.6979 47.7953 24.0411L45.0358 30.5106C44.6885 31.3329 45.1271 32 46.0226 32H53.9449C54.4208 31.975 54.8815 31.8239 55.2797 31.5622C55.6779 31.3005 55.9994 30.9375 56.211 30.5106L59.8113 22.1862C60.9443 19.4815 59.3087 17.389 56.9329 17.2793C59.0346 16.5209 60.9717 14.4284 61.8398 12.5278L63.7039 8.14171C65.9517 3.04293 64.3527 0.118893 59.1351 0.191993M54.4749 9.28391L52.5012 13.6243C52.0443 14.666 51.3864 14.7482 50.7285 14.7208H46.2785L49.2573 7.95896H53.5246C54.5663 8.02292 54.8313 8.39756 54.4749 9.28391ZM90.2578 0.173718H73.3166C72.9774 0.1914 72.6488 0.298846 72.3647 0.485075C72.0805 0.671304 71.8509 0.92964 71.6993 1.23368L58.733 30.9309C58.4863 31.5157 58.7879 31.9817 59.4275 31.9817H77.5656C83.3132 31.8995 86.6118 30.6293 89.2343 24.5437L91.0984 20.4866C92.5604 17.0143 91.1258 15.5066 88.3845 15.068C90.6689 14.3644 92.3868 12.2171 93.127 10.3256L94.6438 7.10916C96.5079 2.81449 94.9545 0.118893 90.2486 0.173718M81.9425 20.0937L80.7912 22.4055C80.2155 24.0137 79.2104 24.4523 77.7941 24.4706H72.4943L75.0345 18.4855H80.3343C81.8329 18.5951 82.4177 18.9606 81.9425 20.0937ZM84.9854 9.43925L84.1904 11.2668L84.0716 11.5043C83.9396 11.8856 83.6852 12.2124 83.348 12.4339C83.0108 12.6554 82.6098 12.7591 82.2075 12.7288H77.6113L79.713 7.88586H84.4006C85.2412 7.94068 85.3783 8.48894 84.9854 9.43925ZM116.044 0.182856L112.106 8.99151H117.725C118.109 8.99151 118.292 9.26563 118.137 9.622L108.314 31.3695C108.149 31.7167 108.341 32 108.725 32H118.731C119.114 32 119.553 31.7167 119.708 31.3604L129.138 9.622C129.229 9.43915 129.366 9.28358 129.536 9.17119C129.706 9.05881 129.903 8.99364 130.107 8.98237H135.873L141.3 0.182856H116.044ZM33.0289 11.0201L34.2717 8.30619C36.7754 2.58605 35.1215 0.12803 30.2054 0.191993H18.3722C13.5019 0.12803 9.4448 2.86931 7.19695 7.96809L3.5419 18.2936H0.0878906L6.69438 27.2119L17.6138 18.2936H14.836L18.0433 10.8464C18.5641 9.622 19.4596 9.03719 20.4191 8.99151H22.2831C22.7217 9.00978 23.0233 9.14684 23.1969 9.33873L28.9901 4.46839L33.0289 11.0201Z" fill="#191825" fill-opacity="0.5"/>
<path d="M6.44775 29.8344L1.58655 23.6756L1.33069 24.2239C-0.926295 29.3592 -0.551653 31.9178 4.31869 31.9909H15.9965C20.8303 31.9178 25.061 29.3592 27.3272 24.2239L30.7995 16.265H33.9062L28.6064 7.3376L17.7784 16.265H20.7481L18.5551 21.3364C18.0251 22.4146 17.221 22.9995 16.362 23.036H14.8087L6.44775 29.8344Z" fill="#191825" fill-opacity="0.5"/>
<path d="M172.012 0.000121574C172.441 0.000121574 172.807 0.155461 173.108 0.457002C173.41 0.758543 173.565 1.12405 173.565 1.55351C173.565 1.97384 173.41 2.33935 173.108 2.65003C172.807 2.96071 172.441 3.10691 172.012 3.10691C171.808 3.11005 171.605 3.07111 171.416 2.99251C171.227 2.91391 171.057 2.79733 170.915 2.65003C170.614 2.33935 170.458 1.97384 170.458 1.55351C170.458 1.13318 170.614 0.749405 170.915 0.457002C171.057 0.310133 171.228 0.193842 171.416 0.115274C171.605 0.0367063 171.808 -0.00248031 172.012 0.000121574ZM172.012 2.8145C172.18 2.81829 172.346 2.78783 172.502 2.72499C172.657 2.66214 172.798 2.56823 172.917 2.449C173.036 2.33132 173.13 2.19029 173.193 2.03467C173.256 1.87905 173.286 1.71216 173.282 1.54438C173.285 1.37812 173.254 1.21297 173.191 1.05902C173.129 0.905057 173.035 0.765513 172.917 0.648891C172.799 0.52922 172.658 0.435021 172.502 0.372144C172.347 0.309268 172.18 0.279057 172.012 0.283387C171.846 0.279772 171.68 0.310346 171.526 0.373218C171.372 0.436089 171.233 0.529918 171.116 0.648891C170.87 0.895607 170.751 1.19715 170.751 1.54438C170.751 1.89161 170.87 2.20228 171.116 2.449C171.363 2.69571 171.665 2.8145 172.012 2.8145ZM172.807 2.3759H172.441L171.984 1.71799H171.793V2.3759H171.464V0.703717H171.984C172.167 0.703717 172.313 0.749405 172.423 0.831644C172.533 0.92302 172.597 1.04181 172.597 1.19715C172.597 1.39818 172.487 1.55351 172.277 1.63575L172.807 2.3759ZM171.802 1.44386H171.975C172.185 1.44386 172.286 1.36162 172.286 1.20629C172.286 1.05095 172.195 0.977845 171.984 0.977845H171.802V1.44386Z" fill="#191825" fill-opacity="0.5"/>
</svg>
