<svg width="212" height="32" viewBox="0 0 212 32" fill="none" xmlns="http://www.w3.org/2000/svg">
<path d="M22.8011 19.2268C24.6228 24.1624 30.1134 26.6888 35.0504 24.8713C39.9845 23.0411 42.5166 17.5562 40.6878 12.6192C38.8647 7.6766 33.3826 5.15445 28.4385 6.97616C23.4987 8.80494 20.9766 14.287 22.8011 19.2268Z" fill="white"/>
<path d="M10.6083 25.4221C15.8743 25.4221 20.1433 21.1531 20.1433 15.887C20.1433 10.621 15.8743 6.35201 10.6083 6.35201C5.34222 6.35201 1.07324 10.621 1.07324 15.887C1.07324 21.1531 5.34222 25.4221 10.6083 25.4221Z" fill="white"/>
<path d="M12.2338 15.7854C12.2338 16.757 11.4444 17.5534 10.4728 17.5534C9.49698 17.5534 8.70898 16.7584 8.70898 15.7854C8.70898 14.8152 9.49698 14.0286 10.4728 14.0286C11.4444 14.0301 12.2338 14.8152 12.2338 15.7854Z" fill="#191825" fill-opacity="0.5"/>
<path d="M33.4824 15.7854C33.4824 16.757 32.6958 17.5534 31.7243 17.5534C30.7456 17.5534 29.9604 16.7584 29.9604 15.7854C29.9604 14.8152 30.7456 14.0286 31.7243 14.0286C32.6973 14.0301 33.4824 14.8152 33.4824 15.7854Z" fill="#191825" fill-opacity="0.5"/>
<path d="M5.2334 15.7854C5.2334 18.6761 7.58468 21.0231 10.4754 21.0231C13.3591 21.0231 15.7089 18.6761 15.7089 15.7854C15.7089 12.9017 13.3577 10.5532 10.4754 10.5532C7.58609 10.556 5.2334 12.9031 5.2334 15.7854ZM7.03958 15.7854C7.03958 13.8944 8.5845 12.3566 10.4782 12.3566C12.3691 12.3566 13.9056 13.8987 13.9056 15.7854C13.9056 17.6819 12.3691 19.2226 10.4782 19.2226C8.5845 19.224 7.03958 17.6847 7.03958 15.7854Z" fill="#191825" fill-opacity="0.5"/>
<path d="M26.4854 15.7854C26.4854 18.6761 28.8338 21.0231 31.7231 21.0231C34.6082 21.0231 36.9553 18.6761 36.9553 15.7854C36.9553 12.9017 34.6082 10.5532 31.7231 10.5532C28.8352 10.556 26.4854 12.9031 26.4854 15.7854ZM28.2915 15.7854C28.2915 13.8944 29.8322 12.3566 31.7274 12.3566C33.6183 12.3566 35.1533 13.8987 35.1533 15.7854C35.1533 17.6819 33.6183 19.2226 31.7274 19.2226C29.8294 19.224 28.2915 17.6847 28.2915 15.7854Z" fill="#191825" fill-opacity="0.5"/>
<path d="M28.0715 5.97211C29.1758 5.5654 30.3056 5.36769 31.4212 5.33663C28.3822 3.9767 24.9421 3.28755 21.1306 3.28755C17.3488 3.28755 13.8579 3.99223 10.8203 5.29144C16.3179 5.40017 20.7875 9.70591 21.173 15.1329C21.2662 13.8874 21.5712 12.656 22.1093 11.4895C23.2941 8.90944 25.4138 6.95216 28.0715 5.97211Z" fill="white"/>
<path d="M40.2697 9.62259C40.7668 7.49443 42.3442 5.36486 42.3442 5.36486L35.265 5.36063C31.2953 2.79752 26.4741 1.43759 21.1333 1.43759C15.5891 1.43759 10.5829 2.83 6.63583 5.41147L0 5.41711C0 5.41711 1.55905 7.52268 2.0632 9.6353C0.772462 11.3906 0.00564872 13.547 0.00564872 15.8884C0.00564872 21.7334 4.76328 26.4883 10.6111 26.4883C13.9538 26.4883 16.9349 24.9306 18.8794 22.5101L21.1375 25.8909L23.4125 22.4805C24.4364 23.7825 25.7568 24.8388 27.3045 25.5548C29.8789 26.7382 32.764 26.8554 35.4203 25.874C40.9066 23.8447 43.7239 17.7285 41.6946 12.2492C41.3387 11.2847 40.853 10.4078 40.2697 9.62259ZM21.1319 3.28896C24.9433 3.28896 28.3834 3.9781 31.4224 5.33945C30.3054 5.3691 29.1771 5.56822 28.0727 5.9721C25.415 6.95215 23.2953 8.90944 22.1133 11.4853C21.5753 12.6517 21.2717 13.8831 21.1771 15.1287C20.7887 9.70449 16.3192 5.39876 10.8215 5.28719C13.8577 3.99223 17.3472 3.28896 21.1319 3.28896ZM17.6184 20.6249C16.096 22.8702 13.5202 24.3502 10.6083 24.3502C5.93963 24.3502 2.14087 20.5486 2.14087 15.8898C2.14087 11.2184 5.94104 7.42382 10.6083 7.42382C15.2756 7.42382 19.0743 11.2184 19.0743 15.8898C19.0743 16.1751 19.0192 16.4434 18.9896 16.7188C18.8484 18.1493 18.388 19.4895 17.6184 20.6249ZM34.6789 23.8672C32.5578 24.6468 30.2574 24.5606 28.2026 23.6131C26.7453 22.938 25.552 21.8803 24.692 20.567C24.3417 20.036 24.0339 19.4725 23.8065 18.8554C23.5481 18.1578 23.4196 17.439 23.3504 16.7146C23.2092 15.2459 23.4224 13.7603 24.0551 12.3834C25.0041 10.3287 26.693 8.76539 28.8141 7.98022C33.1947 6.36469 38.071 8.61147 39.6893 12.9906C41.3063 17.3698 39.0581 22.2461 34.6789 23.8672Z" fill="#191825" fill-opacity="0.5"/>
<path d="M54.8517 2.98677L51.7477 4.05862C51.7477 4.05862 51.7477 7.77548 51.7477 8.10875C51.4229 8.10875 48.3076 8.10875 48.3076 8.10875V10.8244C48.3076 10.8244 51.3269 10.8244 51.6545 10.8244C51.6545 11.1774 51.6545 19.5432 51.6545 19.5432C51.6545 23.6865 53.0653 25.3868 56.535 25.3868C57.4148 25.3868 58.255 25.278 59.0981 25.0479L59.2351 25.014L59.1969 22.1981L58.9597 22.2885C58.2776 22.5243 57.7438 22.6401 57.3314 22.6401C55.7018 22.6401 55.0974 21.7236 55.0974 19.2494C55.0974 19.2494 55.0974 11.176 55.0974 10.8286C55.4278 10.8286 59.067 10.8286 59.067 10.8286V8.10875C59.067 8.10875 55.4292 8.10875 55.0974 8.10875C55.0974 7.77265 55.0974 2.90628 55.0974 2.90628L54.8517 2.98677Z" fill="#191825" fill-opacity="0.5"/>
<path d="M65.5842 10.8596C65.5842 9.9036 65.5842 8.10872 65.5842 8.10872H62.4351V25.0874H65.878V16.5648C65.878 12.992 67.3791 11.0235 70.099 11.0235C70.493 11.0235 70.8757 11.0828 71.3417 11.2141L71.5648 11.2776L71.6778 7.92654L70.1964 7.81357C68.201 7.81216 66.5897 8.88965 65.5842 10.8596Z" fill="#191825" fill-opacity="0.5"/>
<path d="M77.8143 8.10732H74.555V25.0874H77.9978V8.10732H77.8143ZM74.2217 3.13221C74.2217 4.26195 75.1424 5.17846 76.2693 5.17846C77.3991 5.17846 78.317 4.26195 78.317 3.13221C78.317 2.00388 77.3991 1.08314 76.2693 1.08314C75.1424 1.08031 74.2217 2.00388 74.2217 3.13221Z" fill="#191825" fill-opacity="0.5"/>
<path d="M90.1568 7.70911C87.7943 7.70911 85.8073 8.82755 84.4827 10.8625C84.4827 10.0491 84.4827 8.10452 84.4827 8.10452H81.335V32H84.7807C84.7807 32 84.7807 23.6554 84.7807 22.7375C86.0234 24.4279 87.8056 25.3571 90.0241 25.3571C94.3764 25.3571 97.1881 21.7857 97.1881 16.2712C97.1881 11.1506 94.3609 7.70911 90.1568 7.70911ZM89.1952 22.5723C86.4711 22.5723 84.7793 20.2436 84.7793 16.5028C84.7793 12.8918 86.5643 10.5589 89.3265 10.5589C91.9884 10.5589 93.58 12.7704 93.58 16.4674C93.5814 20.2309 91.8995 22.5723 89.1952 22.5723Z" fill="#191825" fill-opacity="0.5"/>
<path d="M107.251 7.70911C105.145 7.70911 103.301 8.10734 101.609 8.92076L101.505 8.9716L101.541 11.9103L101.813 11.7578C103.43 10.854 104.96 10.3922 106.354 10.3922C108.848 10.3922 110.28 11.8214 110.28 14.3195C110.28 14.3195 110.28 14.3915 110.28 14.465C109.976 14.465 108.31 14.465 108.31 14.465C102.642 14.465 99.5234 16.5183 99.5234 20.2408C99.5234 23.2304 101.774 25.3204 104.997 25.3204C107.368 25.3204 109.203 24.3884 110.51 22.6344C110.51 23.3165 110.51 25.086 110.51 25.086H113.621V14.811C113.62 10.1013 111.478 7.70911 107.251 7.70911ZM110.274 17.9192C110.274 20.8438 108.515 22.7361 105.792 22.7361C104.124 22.7361 102.961 21.6403 102.961 20.0727C102.961 18.0124 104.931 16.8812 108.506 16.8812C108.506 16.8812 109.979 16.8812 110.277 16.8812C110.274 17.1453 110.274 17.9192 110.274 17.9192Z" fill="#191825" fill-opacity="0.5"/>
<path d="M128.243 0C128.243 0 128.243 9.46584 128.243 10.412C126.973 8.64678 125.206 7.71192 122.937 7.71192C118.725 7.71192 115.895 11.1802 115.895 16.3347C115.895 21.6445 118.765 25.3529 122.868 25.3529C125.298 25.3529 127.193 24.2768 128.507 22.1853C128.507 23.0312 128.507 25.0888 128.507 25.0888H131.69V0H128.243ZM123.76 22.5031C121.137 22.5031 119.507 20.2154 119.507 16.5324C119.507 12.8452 121.151 10.4614 123.698 10.4614C126.542 10.4614 128.24 12.7294 128.24 16.5324C128.243 20.1659 126.489 22.5031 123.76 22.5031Z" fill="#191825" fill-opacity="0.5"/>
<path d="M147.074 8.10733L142.192 17.9121L137.679 8.10733H133.8L142.12 25.0874L150.667 8.10733H147.074Z" fill="#191825" fill-opacity="0.5"/>
<path d="M155.679 8.10732H152.418V25.0874H155.866V8.10732H155.679ZM152.089 3.13221C152.089 4.26195 153.009 5.17846 154.137 5.17846C155.271 5.17846 156.185 4.26195 156.185 3.13221C156.185 2.00388 155.268 1.08314 154.137 1.08314C153.01 1.08031 152.089 2.00388 152.089 3.13221Z" fill="#191825" fill-opacity="0.5"/>
<path d="M159.902 12.4611C159.902 14.8491 161.543 16.1073 164.574 17.5901C166.485 18.5292 167.483 19.0828 167.483 20.406C167.483 21.7631 166.257 22.6401 164.354 22.6401C163.008 22.6401 161.514 22.2616 160.034 21.5344L159.782 21.4101L159.671 24.4039L159.785 24.4463C161.2 25.0097 162.687 25.2851 164.224 25.2851C168.435 25.2851 171.153 23.2784 171.153 20.173C171.153 17.5845 169.432 16.2697 166.448 14.8773C164.263 13.8507 163.347 13.2533 163.347 12.1645C163.347 11.1336 164.366 10.4615 165.942 10.4615C167.366 10.4615 168.755 10.7778 170.07 11.4048L170.319 11.5192L170.468 8.59031L170.331 8.55077C168.905 8.12712 167.497 7.91388 166.142 7.91388C162.411 7.90823 159.902 9.73841 159.902 12.4611Z" fill="#191825" fill-opacity="0.5"/>
<path d="M181.896 7.70911C176.722 7.70911 173.509 11.1167 173.509 16.596C173.509 22.078 176.725 25.48 181.896 25.48C187.094 25.48 190.321 22.0766 190.321 16.596C190.321 11.1181 187.092 7.70911 181.896 7.70911ZM181.926 22.6712C179.066 22.6712 177.146 20.2168 177.146 16.5635C177.146 12.8904 179.066 10.4276 181.926 10.4276C184.832 10.4276 186.709 12.8381 186.709 16.5635C186.709 20.2747 184.835 22.6712 181.926 22.6712Z" fill="#191825" fill-opacity="0.5"/>
<path d="M196.673 10.8596C196.673 9.9036 196.673 8.10872 196.673 8.10872H193.524V25.0874H196.967V16.5648C196.967 12.992 198.459 11.0235 201.184 11.0235C201.575 11.0235 201.955 11.0828 202.412 11.2141L202.645 11.2776L202.753 7.92654L201.277 7.81357C199.29 7.81216 197.681 8.88965 196.673 10.8596Z" fill="#191825" fill-opacity="0.5"/>
<path d="M210.966 7.35601C211.53 7.92794 211.827 8.6877 211.827 9.50535C211.827 10.3597 211.508 11.1251 210.92 11.6886C210.308 12.2704 209.548 12.5825 208.754 12.5825C207.925 12.5825 207.163 12.2563 206.569 11.6434C206.003 11.0559 205.683 10.3046 205.683 9.50252C205.683 8.68487 206.009 7.89264 206.619 7.29105C207.191 6.73042 207.927 6.42538 208.754 6.42538C209.603 6.4268 210.375 6.74877 210.966 7.35601ZM207 7.69352C206.503 8.19061 206.238 8.83033 206.238 9.50535C206.238 10.1634 206.483 10.7693 206.958 11.2522C207.434 11.7493 208.065 12.0176 208.741 12.0176C209.399 12.0176 210.032 11.7648 210.521 11.2903C211.001 10.8286 211.265 10.1959 211.265 9.50394C211.265 8.8275 211.019 8.2132 210.553 7.74295C210.065 7.24586 209.445 6.98461 208.754 6.98461C208.073 6.98461 207.476 7.2275 207 7.69352ZM208.811 7.75142C209.774 7.75142 210.268 8.10023 210.268 8.73147C210.268 9.16643 210.01 9.50394 209.551 9.64233L210.307 11.1237H209.282L208.651 9.78637H208.384V11.1237H207.455V7.75001L208.811 7.75142ZM208.377 9.23703H208.7C209.114 9.23703 209.313 9.09158 209.313 8.80208C209.313 8.47163 209.104 8.33606 208.651 8.33606H208.377V9.23703Z" fill="#191825" fill-opacity="0.5"/>
</svg>
