<svg width="114" height="352" viewBox="0 0 114 352" fill="none" xmlns="http://www.w3.org/2000/svg">
<g clip-path="url(#clip0_832_1294)">
<path d="M189.886 0.560468C214.996 -1.37376 239.832 18.6438 243.266 43.5941C245.051 56.5042 241.755 69.8034 244.193 82.6105C247.615 100.591 261.692 114.588 276.411 125.484C291.129 136.38 307.45 145.673 319.021 159.854C330.603 174.034 336.326 195.185 326.632 210.716C317.258 225.743 296.76 230.974 287.558 246.115C272.588 270.734 295.764 304.806 283.072 330.672C276.663 343.731 261.795 351.388 247.249 351.525C232.702 351.662 218.67 345.184 207.397 335.983C194.098 325.133 183.431 310.162 167.339 304.199C141.141 294.505 113.604 312.326 86.2158 317.796C60.4185 322.958 31.3822 315.702 14.2031 295.776C-2.976 275.85 -4.91023 242.98 12.967 223.672C22.6153 213.245 37.3223 206.538 41.9232 193.09C47.6343 176.403 34.8616 159.785 25.3278 144.952C17.4192 132.649 11.1816 118.743 10.8268 104.127C10.472 89.5005 16.9271 74.1183 29.551 66.7247C60.3269 48.6758 101.827 83.3888 130.852 58.2095C153.273 38.7757 152.506 3.44464 189.886 0.560468Z" stroke="#FF5722" stroke-width="0.858384" stroke-miterlimit="10"/>
<path d="M188.616 9.89976C212.387 8.06854 235.907 27.0217 239.157 50.6444C240.84 62.8678 237.727 75.4574 240.038 87.5778C243.277 104.608 256.611 117.85 270.54 128.162C284.468 138.474 299.919 147.276 310.884 160.701C321.848 174.126 327.262 194.143 318.094 208.85C309.213 223.077 289.813 228.032 281.092 242.362C266.923 265.664 288.863 297.928 276.846 322.42C270.78 334.781 256.703 342.026 242.923 342.163C229.154 342.3 215.866 336.154 205.199 327.456C192.61 317.19 182.515 303.009 167.27 297.367C142.469 288.188 116.397 305.058 90.4736 310.243C66.0498 315.13 38.5586 308.263 22.2951 289.401C6.0201 270.539 4.20033 239.42 21.1277 221.142C30.2723 211.277 44.1896 204.913 48.5387 192.198C53.9408 176.403 41.8548 160.666 32.8246 146.623C25.3395 134.972 19.4338 121.81 19.0904 107.973C18.7471 94.1244 24.8702 79.5662 36.8189 72.5618C65.9582 55.4742 105.249 88.3446 132.718 64.5044C153.937 46.0892 153.216 12.6466 188.616 9.91121V9.89976Z" stroke="#FF5722" stroke-width="0.824049" stroke-linecap="round" stroke-linejoin="round"/>
<path d="M187.345 19.2391C209.778 17.5108 231.97 35.3996 235.048 57.6832C236.639 69.2199 233.698 81.0999 235.872 92.5451C238.928 108.614 251.518 121.112 264.657 130.852C277.807 140.592 292.388 148.889 302.735 161.559C313.081 174.229 318.197 193.125 309.533 207.008C301.155 220.433 282.843 225.114 274.614 238.642C261.246 260.64 281.951 291.084 270.608 314.191C264.886 325.865 251.598 332.698 238.596 332.824C225.595 332.95 213.062 327.159 202.991 318.941C191.111 309.247 181.577 295.868 167.202 290.546C143.796 281.882 119.189 297.802 94.7198 302.689C71.6693 307.301 45.7347 300.823 30.3753 283.015C15.016 265.218 13.2992 235.838 29.2766 218.59C37.9062 209.274 51.0338 203.277 55.1426 191.271C60.2471 176.358 48.8363 161.513 40.3097 148.26C33.2366 137.273 27.6743 124.843 27.3538 111.784C27.0334 98.714 32.8017 84.9684 44.0751 78.3645C71.5778 62.2384 108.649 93.2547 134.583 70.765C154.612 53.3913 153.925 21.8257 187.334 19.2505L187.345 19.2391Z" stroke="#FF5722" stroke-width="0.789713" stroke-linecap="round" stroke-linejoin="round"/>
<path d="M186.075 28.5784C207.168 26.9531 228.044 43.7775 230.928 64.7335C232.427 75.5835 229.658 86.7539 231.706 97.5123C234.59 112.62 246.413 124.385 258.774 133.53C271.135 142.686 284.846 150.492 294.586 162.406C304.314 174.321 309.121 192.095 300.984 205.142C293.109 217.778 275.884 222.161 268.147 234.888C255.569 255.569 275.049 284.205 264.382 305.939C258.991 316.915 246.505 323.347 234.281 323.462C222.058 323.576 210.27 318.128 200.804 310.403C189.634 301.293 180.672 288.703 167.144 283.702C145.135 275.553 121.993 290.523 98.9772 295.124C77.3001 299.461 52.9106 293.361 38.4668 276.628C24.0231 259.884 22.4093 232.267 37.4368 216.049C45.5514 207.294 57.9007 201.651 61.7577 190.355C66.5532 176.335 55.8291 162.372 47.8175 149.908C41.1679 139.573 35.926 127.888 35.6285 115.607C35.3309 103.315 40.7559 90.3934 51.354 84.1787C77.22 69.014 112.082 98.1761 136.471 77.0255C155.31 60.6819 154.669 30.9933 186.075 28.5784Z" stroke="#FF5722" stroke-width="0.755378" stroke-linecap="round" stroke-linejoin="round"/>
<path d="M184.804 37.9177C204.57 36.3954 224.107 52.1554 226.819 71.7838C228.215 81.947 225.629 92.4079 227.552 102.491C230.253 116.649 241.331 127.659 252.902 136.231C264.474 144.804 277.326 152.117 286.437 163.276C295.547 174.435 300.056 191.076 292.422 203.3C285.04 215.134 268.914 219.243 261.669 231.157C249.892 250.534 268.136 277.35 258.144 297.699C253.097 307.977 241.4 313.997 229.944 314.111C218.498 314.226 207.454 309.121 198.584 301.888C188.123 293.35 179.722 281.561 167.053 276.88C146.44 269.246 124.763 283.267 103.212 287.581C82.9082 291.644 60.0637 285.933 46.5356 270.254C33.0074 254.574 31.4967 228.708 45.5627 213.509C53.1623 205.303 64.7333 200.026 68.35 189.44C72.8365 176.312 62.7991 163.23 55.2911 151.556C49.0649 141.874 44.155 130.932 43.8803 119.43C43.5942 107.927 48.6873 95.8185 58.6102 89.9929C82.8395 75.7895 115.492 103.109 138.325 83.2975C155.962 67.9954 155.367 40.1838 184.781 37.9177H184.804Z" stroke="#FF5722" stroke-width="0.709597" stroke-linecap="round" stroke-linejoin="round"/>
<path d="M183.534 47.2682C201.96 45.849 220.181 60.5331 222.71 78.8453C224.015 88.3219 221.6 98.0731 223.386 107.47C225.904 120.666 236.227 130.932 247.031 138.932C257.824 146.921 269.807 153.742 278.299 164.157C286.792 174.561 290.992 190.08 283.885 201.48C277.006 212.513 261.967 216.347 255.215 227.449C244.239 245.509 261.235 270.517 251.93 289.493C247.226 299.072 236.319 304.692 225.64 304.795C214.962 304.898 204.673 300.137 196.398 293.396C186.635 285.441 178.818 274.454 167.007 270.082C147.791 262.963 127.579 276.045 107.481 280.062C88.5507 283.85 67.2513 278.528 54.6388 263.901C42.0263 249.286 40.6185 225.16 53.7346 211.002C60.8192 203.357 71.6005 198.424 74.9768 188.57C79.1657 176.323 69.8036 164.134 62.7992 153.25C56.9965 144.22 52.4184 134.022 52.1552 123.298C51.892 112.574 56.6302 101.278 65.8893 95.8528C88.4706 82.6108 118.926 108.076 140.214 89.6037C156.661 75.3317 156.1 49.4085 183.534 47.2911V47.2682Z" stroke="#FF5722" stroke-width="0.675262" stroke-linecap="round" stroke-linejoin="round"/>
<path d="M182.252 56.6075C199.339 55.2913 216.244 68.911 218.578 85.8956C219.792 94.6855 217.548 103.727 219.208 112.448C221.543 124.683 231.122 134.205 241.137 141.622C251.151 149.038 262.253 155.356 270.139 165.016C278.024 174.664 281.916 189.05 275.323 199.626C268.937 209.858 254.997 213.417 248.736 223.718C238.55 240.462 254.322 263.661 245.692 281.252C241.331 290.134 231.214 295.353 221.314 295.444C211.414 295.536 201.869 291.129 194.2 284.869C185.147 277.487 177.891 267.301 166.938 263.249C149.107 256.657 130.371 268.777 111.738 272.497C94.1815 276.01 74.4272 271.066 62.7303 257.515C51.0334 243.953 49.7287 221.589 61.8948 208.45C68.4643 201.354 78.4673 196.787 81.5919 187.643C85.4718 176.289 76.7849 164.981 70.2955 154.887C64.9163 146.52 60.6702 137.055 60.4298 127.109C60.1895 117.164 64.5844 106.691 73.1683 101.656C94.1128 89.3749 122.348 112.998 142.102 95.8643C157.359 82.6337 156.832 58.5875 182.275 56.6304L182.252 56.6075Z" stroke="#FF5722" stroke-width="0.640927" stroke-linecap="round" stroke-linejoin="round"/>
<path d="M180.982 65.9468C196.73 64.7337 212.307 77.2889 214.47 92.9344C215.592 101.038 213.52 109.37 215.054 117.404C217.205 128.689 226.03 137.456 235.266 144.3C244.491 151.133 254.734 156.97 261.99 165.863C269.258 174.756 272.84 188.02 266.763 197.76C260.88 207.191 248.027 210.464 242.247 219.964C232.862 235.403 247.398 256.783 239.432 273C235.415 281.195 226.087 285.991 216.965 286.082C207.843 286.174 199.042 282.099 191.969 276.331C183.625 269.533 176.942 260.136 166.847 256.394C150.412 250.316 133.141 261.487 115.962 264.92C99.7785 268.159 81.5694 263.604 70.788 251.106C60.0067 238.608 58.805 217.995 70.0098 205.886C76.0642 199.351 85.289 195.139 88.1732 186.704C91.7555 176.232 83.7439 165.817 77.7581 156.512C72.7909 148.798 68.8882 140.077 68.6593 130.898C68.4304 121.73 72.4819 112.071 80.402 107.435C99.7099 96.1162 125.736 117.885 143.945 102.102C158.011 89.9015 157.531 67.7437 180.97 65.9354L180.982 65.9468Z" stroke="#FF5722" stroke-width="0.606591" stroke-linecap="round" stroke-linejoin="round"/>
<path d="M179.711 75.2861C194.12 74.176 208.381 85.6669 210.35 99.9847C211.368 107.401 209.48 115.024 210.876 122.383C212.845 132.706 220.925 140.741 229.371 146.99C237.818 153.239 247.18 158.584 253.83 166.721C260.479 174.859 263.764 187.002 258.202 195.918C252.822 204.547 241.057 207.546 235.769 216.233C227.174 230.356 240.485 249.927 233.194 264.772C229.52 272.268 220.982 276.663 212.627 276.743C204.272 276.823 196.226 273.104 189.76 267.827C182.126 261.601 176.003 253.006 166.767 249.584C151.728 244.022 135.922 254.242 120.208 257.389C105.398 260.354 88.7338 256.188 78.8681 244.754C69.0024 233.32 67.9037 214.447 78.1585 203.368C83.6979 197.383 92.133 193.537 94.7768 185.812C98.0501 176.232 90.7252 166.698 85.2545 158.183C80.7107 151.121 77.1284 143.144 76.9339 134.744C76.7278 126.354 80.4361 117.519 87.6808 113.272C105.352 102.915 129.169 122.841 145.822 108.385C158.686 97.2264 158.251 76.9457 179.711 75.2861Z" stroke="#FF5722" stroke-width="0.572256" stroke-linecap="round" stroke-linejoin="round"/>
<path d="M178.441 84.6254C191.511 83.6183 204.444 94.0448 206.241 107.035C207.168 113.753 205.451 120.678 206.722 127.35C208.507 136.712 215.832 144.003 223.5 149.679C231.169 155.356 239.661 160.198 245.692 167.58C251.724 174.962 254.7 185.972 249.652 194.064C244.765 201.892 234.099 204.616 229.303 212.502C221.509 225.32 233.584 243.072 226.968 256.531C223.626 263.33 215.889 267.312 208.313 267.393C200.736 267.461 193.434 264.085 187.563 259.301C180.638 253.647 175.088 245.853 166.698 242.751C153.056 237.704 138.715 246.986 124.454 249.836C111.018 252.525 95.8988 248.748 86.9487 238.368C77.9986 227.987 76.9914 210.877 86.3078 200.828C91.3322 195.403 98.9889 191.901 101.381 184.908C104.357 176.221 97.7071 167.568 92.7399 159.843C88.6197 153.433 85.3693 146.2 85.1861 138.578C85.003 130.967 88.3679 122.955 94.9374 119.098C110.961 109.702 132.569 127.774 147.688 114.669C159.362 104.54 158.961 86.1476 178.43 84.6483L178.441 84.6254Z" stroke="#FF5722" stroke-width="0.537921" stroke-linecap="round" stroke-linejoin="round"/>
<path d="M177.17 93.9647C188.913 93.0606 200.518 102.423 202.132 114.085C202.968 120.117 201.423 126.332 202.567 132.317C204.169 140.729 210.75 147.265 217.629 152.358C224.507 157.451 232.141 161.8 237.555 168.427C242.968 175.053 245.647 184.942 241.114 192.198C236.731 199.225 227.151 201.675 222.848 208.748C215.855 220.25 226.682 236.193 220.753 248.279C217.755 254.379 210.808 257.962 204.009 258.03C197.211 258.099 190.653 255.066 185.377 250.763C179.162 245.693 174.172 238.688 166.652 235.907C154.406 231.375 141.53 239.707 128.735 242.259C116.672 244.674 103.098 241.275 95.0631 231.97C87.0287 222.654 86.1245 207.283 94.4909 198.264C99.0003 193.388 105.879 190.253 108.03 183.969C110.697 176.164 104.734 168.404 100.271 161.468C96.5739 155.711 93.6554 149.222 93.4837 142.378C93.312 135.545 96.3336 128.346 102.239 124.889C116.626 116.454 136.025 132.684 149.599 120.907C160.083 111.819 159.717 95.3038 177.193 93.9533L177.17 93.9647Z" stroke="#FF5722" stroke-width="0.503585" stroke-linecap="round" stroke-linejoin="round"/>
<path d="M175.9 103.315C186.304 102.514 196.593 110.811 198.012 121.135C198.745 126.48 197.383 131.996 198.402 137.295C199.821 144.746 205.658 150.537 211.747 155.058C217.835 159.579 224.599 163.425 229.395 169.296C234.19 175.167 236.56 183.934 232.542 190.366C228.662 196.592 220.17 198.756 216.359 205.028C210.156 215.225 219.758 229.337 214.505 240.05C211.85 245.463 205.692 248.633 199.66 248.691C193.629 248.748 187.826 246.058 183.157 242.258C177.652 237.761 173.234 231.557 166.561 229.097C155.711 225.079 144.3 232.461 132.958 234.728C122.269 236.868 110.251 233.858 103.132 225.606C96.0135 217.354 95.2123 203.734 102.617 195.746C106.612 191.431 112.7 188.65 114.612 183.076C116.981 176.163 111.693 169.284 107.733 163.138C104.46 158.045 101.873 152.288 101.725 146.223C101.576 140.168 104.254 133.793 109.484 130.726C122.234 123.252 139.425 137.627 151.442 127.201C160.724 119.143 160.415 104.505 175.9 103.315Z" stroke="#FF5722" stroke-width="0.46925" stroke-linecap="round" stroke-linejoin="round"/>
<path d="M174.63 112.654C183.694 111.956 192.656 119.178 193.903 128.185C194.544 132.843 193.354 137.65 194.235 142.263C195.471 148.752 200.553 153.811 205.863 157.736C211.174 161.662 217.068 165.027 221.246 170.143C225.423 175.259 227.495 182.893 223.992 188.501C220.605 193.926 213.211 195.814 209.881 201.285C204.478 210.167 212.845 222.47 208.267 231.809C205.955 236.525 200.587 239.283 195.334 239.34C190.08 239.386 185.022 237.051 180.947 233.732C176.152 229.818 172.295 224.416 166.492 222.264C157.038 218.762 147.093 225.194 137.204 227.174C127.888 229.04 117.415 226.419 111.212 219.231C105.009 212.044 104.311 200.175 110.766 193.205C114.245 189.439 119.556 187.024 121.215 182.172C123.275 176.152 118.663 170.143 115.229 164.798C112.368 160.357 110.125 155.333 109.988 150.057C109.862 144.781 112.185 139.23 116.74 136.552C127.853 130.039 142.835 142.572 153.307 133.484C161.399 126.468 161.124 113.707 174.618 112.666L174.63 112.654Z" stroke="#FF5722" stroke-width="0.434915" stroke-linecap="round" stroke-linejoin="round"/>
<path d="M173.347 121.993C181.073 121.398 188.718 127.556 189.771 135.235C190.321 139.207 189.302 143.304 190.057 147.241C191.11 152.781 195.448 157.084 199.969 160.438C204.501 163.791 209.514 166.652 213.085 171.013C216.644 175.373 218.407 181.886 215.431 186.67C212.547 191.294 206.241 192.907 203.402 197.566C198.801 205.142 205.932 215.626 202.017 223.592C200.049 227.609 195.471 229.967 190.996 230.012C186.521 230.058 182.206 228.055 178.738 225.228C174.641 221.886 171.367 217.285 166.412 215.454C158.354 212.467 149.874 217.949 141.45 219.643C133.507 221.234 124.58 219.002 119.292 212.868C114.005 206.733 113.409 196.616 118.914 190.676C121.89 187.471 126.411 185.399 127.819 181.268C129.57 176.129 125.644 171.013 122.714 166.458C120.276 162.669 118.365 158.389 118.251 153.891C118.136 149.393 120.128 144.655 124.008 142.377C133.484 136.826 146.245 147.505 155.184 139.756C162.085 133.77 161.845 122.898 173.347 122.016V121.993Z" stroke="#FF5722" stroke-width="0.389134" stroke-linecap="round" stroke-linejoin="round"/>
</g>
<defs>
<clipPath id="clip0_832_1294">
<rect width="332" height="351.949" fill="white"/>
</clipPath>
</defs>
</svg>
