<svg width="40" height="40" viewBox="0 0 40 40" fill="none" xmlns="http://www.w3.org/2000/svg">
  <path d="M15.2472 12.4805C14.3139 12.4805 13.5806 13.2305 13.5806 14.1471C13.5806 15.0638 14.3306 15.8138 15.2472 15.8138C16.1639 15.8138 16.9138 15.0638 16.9138 14.1471C16.9138 13.2305 16.1639 12.4805 15.2472 12.4805Z" fill="#FF5722"/>
  <path d="M35.7668 8.39992C34.3668 5.14992 31.2835 3.33325 26.9835 3.33325H13.0168C7.66683 3.33325 3.3335 7.66658 3.3335 13.0166V26.9833C3.3335 31.2833 5.15016 34.3666 8.40016 35.7666C8.71683 35.8999 9.0835 35.8166 9.31683 35.5833L35.5835 9.31659C35.8335 9.06659 35.9168 8.69992 35.7668 8.39992ZM17.5502 20.3999C16.9002 21.0333 16.0502 21.3333 15.2002 21.3333C14.3502 21.3333 13.5002 21.0166 12.8502 20.3999C11.1502 18.7999 9.2835 16.2499 10.0002 13.2166C10.6335 10.4666 13.0668 9.23325 15.2002 9.23325C17.3335 9.23325 19.7668 10.4666 20.4002 13.2333C21.1002 16.2499 19.2335 18.7999 17.5502 20.3999Z" fill="#FF5722"/>
  <path d="M32.4482 34.2159C32.8148 34.5826 32.7648 35.1826 32.3148 35.4326C30.8482 36.2492 29.0648 36.6659 26.9815 36.6659H13.0149C12.5315 36.6659 12.3315 36.0992 12.6649 35.7659L22.7315 25.6992C23.0648 25.3659 23.5815 25.3659 23.9148 25.6992L32.4482 34.2159Z" fill="#FF5722"/>
  <path d="M36.6694 13.0149V26.9815C36.6694 29.0648 36.2527 30.8648 35.436 32.3148C35.186 32.7648 34.586 32.7982 34.2194 32.4482L25.686 23.9148C25.3527 23.5815 25.3527 23.0648 25.686 22.7315L35.7527 12.6649C36.1027 12.3315 36.6694 12.5315 36.6694 13.0149Z" fill="#FF5722"/>
</svg>

